<svg xmlns="http://www.w3.org/2000/svg" viewBox="0 0 576 512"><!--!Font Awesome Free 6.5.2 by @fontawesome - https://fontawesome.com License - https://fontawesome.com/license/free Copyright 2024 Fonticons, Inc.--><path fill="#d0eef5" d="M327.1 96c-90 0-168.5 54.8-212.3 101.6L27.5 131.6c-12.1-9.2-30.2 .6-27.1 14.7L24.5 256 .4 365.8c-3.1 14.1 15 23.8 27.1 14.7l87.3-66.1C158.6 361.2 237.1 416 327.1 416 464.6 416 576 288 576 256S464.6 96 327.1 96zm87.4 184c-13.3 0-24-10.8-24-24 0-13.3 10.8-24 24-24 13.3 0 24 10.7 24 24 0 13.3-10.8 24-24 24z"/></svg>